<svg xmlns="http://www.w3.org/2000/svg" width="32" height="32" xml:space="preserve"><path fill="#2D2220" d="M26 7v13H15.5c-.3 0-.5-.2-.5-.5s.2-.5.5-.5H25V8H7v11h1.5c.3 0 .5.2.5.5s-.2.5-.5.5H6V7h20z"/><path fill="#FFD561" d="M14 8h11v11H14zM12 8h1v11h-1zM10 8h1v11h-1zM1 28h30v1H1z"/><path fill="#2D2220" d="M23 5.5c0 .3-.2.5-.5.5h-8c-.3 0-.5-.2-.5-.5s.2-.5.5-.5h8c.3 0 .5.2.5.5z"/><path fill="#2D2220" d="m30.9 26.5-3-5a1 1 0 0 0-.3-.3c.3-.3.4-.6.4-1.2V7s0-2-2-2h-2 .5c-.3 0-.5.2-.5.5s.2.5.5.5H26c.8 0 1 .6 1 1v13c0 .8-.6 1-1 1H6c-.8 0-1-.6-1-1V7c0-.8.6-1 1-1h16.5c.3 0 .5-.2.5-.5s-.2-.5-.5-.5H6S4 5 4 7v13s0 .7.4 1.2l-.3.3-3 5a1 1 0 0 0 0 1c.2.3.5.5.9.5h28c.4 0 .7-.2.9-.5a1 1 0 0 0 0-1zM2 27l3-5h22l3 5H2z"/><path fill="#2D2220" d="M14 19.5c0-.3-.2-.5-.5-.5h-3c-.3 0-.5.2-.5.5s.2.5.5.5h3c.3 0 .5-.2.5-.5zM19 25.5c0-.3-.2-.5-.5-.5h-13c-.3 0-.5.2-.5.5s.2.5.5.5h13c.3 0 .5-.2.5-.5zM23 25.5c0-.3-.2-.5-.5-.5h-1c-.3 0-.5.2-.5.5s.2.5.5.5h1c.3 0 .5-.2.5-.5zM27 25.5c0-.3-.2-.5-.5-.5h-1c-.3 0-.5.2-.5.5s.2.5.5.5h1c.3 0 .5-.2.5-.5zM25 23.5c0-.3-.2-.5-.5-.5h-9c-.3 0-.5.2-.5.5s.2.5.5.5h9c.3 0 .5-.2.5-.5zM13 23.5c0-.3-.2-.5-.5-.5h-1c-.3 0-.5.2-.5.5s.2.5.5.5h1c.3 0 .5-.2.5-.5zM9 23.5c0-.3-.2-.5-.5-.5h-1c-.3 0-.5.2-.5.5s.2.5.5.5h1c.3 0 .5-.2.5-.5z"/></svg>